<svg width="1920" height="1080" xmlns="http://www.w3.org/2000/svg" stroke="null">
 <g stroke="null">
  <title stroke="null">Layer 1</title>
  <path transform="rotate(90 954.231 545.954)" fill="url(#svg_12)" opacity="undefined" d="m378.90073,-432.37101l1150.65958,0l0,1956.6503l-1150.65958,0l0,-1956.6503z" id="svg_13" stroke="#000"/>
  <rect fill="url(#svg_12)" x="445" y="312" width="0" height="1" id="svg_14" stroke="#000"/>
  <path fill="none" stroke-width="4" opacity="undefined" d="m1818.31753,342.99833c-158.28613,0 -286.4979,-100.91387 -286.4979,-225.49886c0,-124.58501 128.21177,-225.49886 286.4979,-225.49886c158.28613,0 286.4979,100.91387 286.4979,225.49886c0,124.58501 -128.21177,225.49886 -286.4979,225.49886z" id="svg_23" stroke="#396fb1"/>
  <path fill="none" stroke-width="4" opacity="undefined" d="m1771.42794,419.8659c-167.00192,0 -302.27348,-113.86231 -302.27348,-254.4331c0,-140.57078 135.27155,-254.4331 302.27348,-254.4331c167.00192,0 302.27348,113.86231 302.27348,254.4331c0,140.57078 -135.27155,254.4331 -302.27348,254.4331z" id="svg_24" stroke="#396fb1"/>
  <path fill="none" stroke-width="4" opacity="undefined" d="m44.33264,213.33186c-98.43434,0 -178.16616,-83.01356 -178.16616,-185.49945c0,-102.48589 79.73182,-185.49945 178.16616,-185.49945c98.43434,0 178.16616,83.01356 178.16616,185.49945c0,102.48589 -79.73182,185.49945 -178.16616,185.49945z" id="svg_25" stroke="#396fb1"/>
  <path fill="none" stroke-width="4" opacity="undefined" d="m6.83273,146.99908c-79.55801,0 -144,-66.23204 -144,-148c0,-81.76796 64.44199,-148 144,-148c79.55801,0 144,66.23204 144,148c0,81.76796 -64.44199,148 -144,148z" id="svg_26" stroke="#396fb1"/>
  <path stroke="null" fill="#266fb6" id="svg_1" opacity="0.2" d="m-61.66667,1022.80002a2337.49,2337.49 0 0 1 297.5,-86.5c271.83,-59.83 486.39,-56.08 552,-54c215.78,6.86 382.12,45.39 503.25,73.45c158.87,36.8 283.09,79.13 458.75,54.55a816.49,816.49 0 0 0 171.5,-43.5l0,110l-1983,0l0,-54z" class="svg-themecolor"/>
  <path stroke="null" fill="#396fb1" id="svg_2" d="m-61.16667,1036.13332s498,-177 849,-150s1031,238 1134,94l0,110l-1983,0l0,-54z" class="svg-themecolor"/>
 </g>
 <defs stroke="null">
  <linearGradient id="svg_12" x1="0" y1="0" x2="1" y2="0" stroke="null">
   <stop stop-color="#6694c1" offset="0" stroke="null"/>
   <stop stop-color="#ffffff" stop-opacity="0.99219" offset="0.26563" stroke="null"/>
  </linearGradient>
 </defs>
</svg>